<?xml version="1.0" encoding="utf-8"?>
<!-- Generator: Adobe Illustrator 27.9.0, SVG Export Plug-In . SVG Version: 6.00 Build 0)  -->
<svg version="1.1" id="图层_1" xmlns="http://www.w3.org/2000/svg" xmlns:xlink="http://www.w3.org/1999/xlink" x="0px" y="0px"
	 viewBox="0 0 154 131.7" style="enable-background:new 0 0 154 131.7;" xml:space="preserve">
<style type="text/css">
	.st0{fill:url(#path10669-9-1-9-9-9_00000023982079356512410520000008011018690641147013_);}
	
		.st1{clip-path:url(#SVGID_00000070087059187089979850000005386816934622713244_);fill:url(#path354-3-3-0-0-7-7-5-6-8-3-92-0-0_00000046330087294341539530000011297856664075709579_);}
	
		.st2{clip-path:url(#SVGID_00000018950669448276727080000011095524484126830525_);fill-rule:evenodd;clip-rule:evenodd;fill:url(#path263-7-9-9-4-2-7-7-0-2-2-8_00000137836843119699287600000000106895921295902617_);}
	
		.st3{clip-path:url(#SVGID_00000000932724765024547540000017784942043295601072_);fill:url(#path354-6-6-5-8-1-1-2-1-4-8-1-2-4-7-6_00000110466041056790463850000001296097431615149981_);}
	.st4{clip-path:url(#SVGID_00000003801025943452481410000007596472297219206290_);}
	.st5{fill:url(#path259-2-6-4-6-7-0-1-0-5-9-4-7-1-5-7-6-2_00000089550645532883625820000006558793981766177684_);}
	.st6{fill-rule:evenodd;clip-rule:evenodd;fill:url(#SVGID_00000073691538819612545270000010656281837345630344_);}
	.st7{fill:url(#SVGID_00000099630344024794208000000012260609763398357683_);}
	.st8{fill:url(#SVGID_00000035498444984880722530000012826991843032713373_);}
	.st9{fill:url(#SVGID_00000074432569486469483640000009687499412298206613_);}
	.st10{fill:url(#SVGID_00000088090476769720569400000008495932562259681705_);}
</style>
<g id="图层_2_00000065047368659225184440000007425509832918018691_">
	<g id="图层_3">
	</g>
</g>
<g>
	
		<linearGradient id="path10669-9-1-9-9-9_00000035532632568957691070000000118822159935344768_" gradientUnits="userSpaceOnUse" x1="28.4911" y1="1010.8444" x2="124.5" y2="1010.8444" gradientTransform="matrix(1 0 0 1 0 -944.8571)">
		<stop  offset="0" style="stop-color:#B40034"/>
		<stop  offset="1" style="stop-color:#569574"/>
	</linearGradient>
	<path id="path10669-9-1-9-9-9" style="fill:url(#path10669-9-1-9-9-9_00000035532632568957691070000000118822159935344768_);" d="
		M124.5,66c0,26.3-21.2,47.7-47.5,48S29.1,93.3,28.5,67C28,40.7,48.7,18.9,75,18s48.4,19.6,49.5,45.9"/>
	<g>
		<g>
			<g>
				<defs>
					<path id="SVGID_1_" d="M124.6,68.2c-1.2,26.3-23.3,46.7-49.6,45.8c-26.3-0.9-47-22.8-46.4-49.1C29.3,38.7,51,17.7,77.3,18.1
						c26.3,0.3,47.4,21.8,47.4,48.1"/>
				</defs>
				<clipPath id="SVGID_00000119100950107961172370000006771206746176555173_">
					<use xlink:href="#SVGID_1_"  style="overflow:visible;"/>
				</clipPath>
				
					<linearGradient id="path354-3-3-0-0-7-7-5-6-8-3-92-0-0_00000145744877102539317490000015571811258457000381_" gradientUnits="userSpaceOnUse" x1="-2829.5374" y1="-3339.0762" x2="-2801.6772" y2="-3370.0361" gradientTransform="matrix(1.872 -4.784315e-02 -4.988451e-02 -1.9518 5191.0469 -6599.6934)">
					<stop  offset="0" style="stop-color:#DDC28B"/>
					<stop  offset="1" style="stop-color:#569574"/>
				</linearGradient>
				
					<path id="path354-3-3-0-0-7-7-5-6-8-3-92-0-0" style="clip-path:url(#SVGID_00000119100950107961172370000006771206746176555173_);fill:url(#path354-3-3-0-0-7-7-5-6-8-3-92-0-0_00000145744877102539317490000015571811258457000381_);" d="
					M113.4,66.2c0.4,14.1-1.9,15-5.5,21c-2.6,4.3,3,7.5,0.8,8.8c-2.6,1.5-1.8-1.1-7-2.4c-2.3-0.6-7.2,0.2-9.1,0.7
					c-2,0.4-8-2.9-9.6-3.3c-2.4-0.6-8.1,2.8-11.7,2.9c-3.5,0.1-7.3-3-12-1.6C53.7,94,47.1,98,46,96.8c-2-2.3,4.2-4.3,1.7-8.5
					c-1.5-2.7-6.8-9.6-7.1-16.8C39.5,48.4,57.4,28.5,77,28s36,16.8,36.5,36.7"/>
			</g>
		</g>
		<g>
			<g>
				<defs>
					<path id="SVGID_00000067219675559659599080000011545867164700113054_" d="M124.6,68.2c-1.2,26.3-23.3,46.7-49.6,45.8
						c-26.3-0.9-47-22.8-46.4-49.1C29.3,38.7,51,17.7,77.3,18.1c26.3,0.3,47.4,21.8,47.4,48.1"/>
				</defs>
				<clipPath id="SVGID_00000042001350460744267360000008334697472374559387_">
					<use xlink:href="#SVGID_00000067219675559659599080000011545867164700113054_"  style="overflow:visible;"/>
				</clipPath>
				
					<linearGradient id="path263-7-9-9-4-2-7-7-0-2-2-8_00000013162611341716975050000009134182039586293382_" gradientUnits="userSpaceOnUse" x1="-6068.1343" y1="-9020.7178" x2="-6068.1343" y2="-9061.3584" gradientTransform="matrix(-0.5095 2.288215e-02 -2.288215e-02 -0.5095 -3209.4009 -4418.8589)">
					<stop  offset="0" style="stop-color:#DDC28B;stop-opacity:0.4"/>
					<stop  offset="1" style="stop-color:#FFFFFF;stop-opacity:0"/>
				</linearGradient>
				
					<path id="path263-7-9-9-4-2-7-7-0-2-2-8" style="clip-path:url(#SVGID_00000042001350460744267360000008334697472374559387_);fill-rule:evenodd;clip-rule:evenodd;fill:url(#path263-7-9-9-4-2-7-7-0-2-2-8_00000013162611341716975050000009134182039586293382_);" d="
					M73.2,35.9c-0.1-1.1,0.8-2.1,2-2.2c12.5-0.6,29.2,11.2,29.8,23.7c0.1,1.1-0.8,2.1-2,2.2c-1.1,0.1-2.1-0.8-2.2-2
					c-0.5-10.2-15.3-20.2-25.5-19.7C74.2,37.9,73.2,37,73.2,35.9z"/>
			</g>
		</g>
		<g>
			<g>
				<defs>
					<path id="SVGID_00000152248626634264652100000004834108801163675324_" d="M124.6,68.2c-1.2,26.3-23.3,46.7-49.6,45.8
						c-26.3-0.9-47-22.8-46.4-49.1C29.3,38.7,51,17.7,77.3,18.1c26.3,0.3,47.4,21.8,47.4,48.1"/>
				</defs>
				<clipPath id="SVGID_00000062183314790436282100000001066624603484823986_">
					<use xlink:href="#SVGID_00000152248626634264652100000004834108801163675324_"  style="overflow:visible;"/>
				</clipPath>
				
					<linearGradient id="path354-6-6-5-8-1-1-2-1-4-8-1-2-4-7-6_00000033369797112037035170000013899907358247220375_" gradientUnits="userSpaceOnUse" x1="-3170.01" y1="-5791.6455" x2="-3194.2603" y2="-5809.4683" gradientTransform="matrix(0.666 -0.939 -0.9766 -0.6927 -3470.9119 -6936.1499)">
					<stop  offset="0" style="stop-color:#569574"/>
					<stop  offset="1" style="stop-color:#DDC28B;stop-opacity:0"/>
				</linearGradient>
				
					<path id="path354-6-6-5-8-1-1-2-1-4-8-1-2-4-7-6" style="clip-path:url(#SVGID_00000062183314790436282100000001066624603484823986_);fill:url(#path354-6-6-5-8-1-1-2-1-4-8-1-2-4-7-6_00000033369797112037035170000013899907358247220375_);" d="
					M95.6,60c0.6,1.3,1.6,3.9,1.2,7.2c-0.2,2-0.8,3.6-1.3,4.7c-0.9,1.7-2.3,4-4.6,6.4c-5.7,5.9-16.1,11.2-26.2,7.9
					c-1.8-0.6-8.9-2.9-11.5-9.6c-2.5-6.2,0.5-12.2,1.8-14.9c0.7-1.5,3.4-6.7,9.2-9.9c9.9-5.5,20.2-0.9,21.5-0.4
					c0.6,0.3,1.6,0.7,2.7,1.5c1.6,1.1,2.7,2.2,4.6,4.2C93.6,57.8,94.5,58.8,95.6,60z"/>
			</g>
		</g>
		<g>
			<g>
				<defs>
					<path id="SVGID_00000053542232809629074840000008622043097932140695_" d="M124.6,68.2c-1.2,26.3-23.3,46.7-49.6,45.8
						c-26.3-0.9-47-22.8-46.4-49.1C29.3,38.7,51,17.7,77.3,18.1c26.3,0.3,47.4,21.8,47.4,48.1"/>
				</defs>
				<clipPath id="SVGID_00000054261934361557064590000017235559780646951836_">
					<use xlink:href="#SVGID_00000053542232809629074840000008622043097932140695_"  style="overflow:visible;"/>
				</clipPath>
				<g style="clip-path:url(#SVGID_00000054261934361557064590000017235559780646951836_);">
					
						<radialGradient id="path259-2-6-4-6-7-0-1-0-5-9-4-7-1-5-7-6-2_00000113319163407646983250000005475800045713554053_" cx="347.0866" cy="-14.2786" r="10.7421" gradientTransform="matrix(0.8679 0.4968 -0.4968 0.8679 -232.6612 -91.5822)" gradientUnits="userSpaceOnUse">
						<stop  offset="0.3447" style="stop-color:#83B93B"/>
						<stop  offset="0.9869" style="stop-color:#1A1C18"/>
						<stop  offset="1" style="stop-color:#1A1C18"/>
						<stop  offset="1" style="stop-color:#1A1C18"/>
					</radialGradient>
					
						<path id="path259-2-6-4-6-7-0-1-0-5-9-4-7-1-5-7-6-2" style="fill:url(#path259-2-6-4-6-7-0-1-0-5-9-4-7-1-5-7-6-2_00000113319163407646983250000005475800045713554053_);" d="
						M81,59.2L81,59.2c1,0.6,1.8,1.2,2.5,2c-2-0.2-4.1,0.8-5.2,2.7c-1.5,2.6-0.6,5.9,2,7.3c1.9,1.1,4.2,0.9,5.8-0.3
						c-0.2,1-0.6,2-1.2,3c-3.2,5.5-10.4,7.2-15.7,3.3c-4-2.9-5.5-8.4-3.5-12.9C70.4,56.2,75.5,56,81,59.2L81,59.2z"/>
				</g>
			</g>
		</g>
	</g>
	
		<linearGradient id="SVGID_00000075150744378064268160000017015009485737877124_" gradientUnits="userSpaceOnUse" x1="82.2738" y1="1008.8885" x2="82.4885" y2="1013.6694" gradientTransform="matrix(1 0 0 1 0 -944.8571)">
		<stop  offset="0" style="stop-color:#DDC28B;stop-opacity:0.4"/>
		<stop  offset="1" style="stop-color:#FFFFFF;stop-opacity:0"/>
	</linearGradient>
	<path style="fill-rule:evenodd;clip-rule:evenodd;fill:url(#SVGID_00000075150744378064268160000017015009485737877124_);" d="
		M79.7,65.5c0,0.2-0.2,2.7,1.5,3.5c1,0.5,2.3,0,3-0.7c1.2-1.3,1.1-3.6-0.3-4.7c-0.9-0.7-2.3-0.9-3.3-0.2
		C79.8,63.9,79.8,65,79.7,65.5z"/>
</g>
<g id="图层_4">
	<g>
		
			<linearGradient id="SVGID_00000001639562169090225090000017270595305087003277_" gradientUnits="userSpaceOnUse" x1="67.2197" y1="1041.1307" x2="67.4026" y2="1046.2476" gradientTransform="matrix(1 0 0 1 0 -944.8571)">
			<stop  offset="0" style="stop-color:#66508D"/>
			<stop  offset="1" style="stop-color:#E0C49E;stop-opacity:0"/>
		</linearGradient>
		<path style="fill:url(#SVGID_00000001639562169090225090000017270595305087003277_);" d="M66.5,95.9c-1.3,0.2-3,1.1-3.1,2.4
			c-0.1,1.5,1.9,3,3.7,3.1c2,0.1,4.1-1.4,4.1-2.9C71.1,96.9,68.6,95.6,66.5,95.9z"/>
		
			<linearGradient id="SVGID_00000148637266921953319240000013634402981104921222_" gradientUnits="userSpaceOnUse" x1="84.0488" y1="1042.4764" x2="91.16" y2="1042.4764" gradientTransform="matrix(1 0 0 1 0 -944.8571)">
			<stop  offset="0" style="stop-color:#69933F"/>
			<stop  offset="1" style="stop-color:#E0C49E;stop-opacity:0"/>
		</linearGradient>
		<path style="fill:url(#SVGID_00000148637266921953319240000013634402981104921222_);" d="M86,94.9c-1.1,0.4-2.1,1.7-1.9,3.1
			c0.2,1.8,2.3,2.4,2.5,2.4c2,0.5,4.4-0.6,4.6-2C91.4,96.6,88.2,94,86,94.9z"/>
		
			<linearGradient id="SVGID_00000165236359515324129140000008011978929794467005_" gradientUnits="userSpaceOnUse" x1="67.8268" y1="1048.0099" x2="68.0932" y2="1055.4651" gradientTransform="matrix(1 0 0 1 0 -944.8571)">
			<stop  offset="0" style="stop-color:#868661"/>
			<stop  offset="1" style="stop-color:#E0C49E;stop-opacity:0"/>
		</linearGradient>
		<path style="fill:url(#SVGID_00000165236359515324129140000008011978929794467005_);" d="M62.3,105.4c-0.3,1.5,2.2,3.3,3.4,4
			c0.7,0.4,4.6,2.3,6.7,0.3c1.4-1.4,1.6-4.1,0.4-5.6C70.5,101,62.8,103,62.3,105.4z"/>
		
			<linearGradient id="SVGID_00000034052511048814417700000017138927793831603111_" gradientUnits="userSpaceOnUse" x1="86.6862" y1="1047.4629" x2="86.9672" y2="1055.3245" gradientTransform="matrix(1 0 0 1 0 -944.8571)">
			<stop  offset="0" style="stop-color:#755126"/>
			<stop  offset="1" style="stop-color:#E0C49E;stop-opacity:0"/>
		</linearGradient>
		<path style="fill:url(#SVGID_00000034052511048814417700000017138927793831603111_);" d="M82,104.1c-1,1.6-0.7,4.3,0.7,5.5
			c2.2,2,6.6,0.4,8.4-2.3c0.4-0.5,1.5-2.1,0.9-3.3C91,101.7,84,100.8,82,104.1z"/>
	</g>
</g>
</svg>
